<svg width="33" height="50" viewBox="0 0 33 50" fill="none" xmlns="http://www.w3.org/2000/svg">
<path d="M24.6135 0.369873C26.0618 0.906155 26.4829 1.5238 26.4841 3.11169C26.4841 6.42678 26.4817 9.74187 26.4853 13.0582C26.4877 15.7951 25.6261 18.188 23.8005 20.2296C20.2857 24.1598 13.9498 24.5248 10.0297 21.0124C7.77456 18.9918 6.60133 16.4608 6.55143 13.4194C6.51857 11.3766 6.53074 9.33257 6.58307 7.28976C6.63541 5.26422 8.13967 3.49757 10.3157 3.07101C14.7238 2.20679 19.1307 1.33641 23.5376 0.467267C23.6447 0.446309 23.747 0.40316 23.8516 0.369873C24.1048 0.369873 24.3591 0.369873 24.6135 0.369873Z" fill="white"/>
<path d="M13.9435 39.5284C13.9046 39.0907 13.873 38.7467 13.845 38.4028C13.7074 36.7569 14.26 35.2295 14.6397 33.6736C14.9439 32.426 15.2871 31.1882 15.5817 29.9381C15.6389 29.6965 15.6072 29.3945 15.5147 29.1615C15.2373 28.4612 14.9013 27.7856 14.602 27.094C14.2965 26.3888 14.6263 25.8821 15.3918 25.8747C16.1549 25.8673 16.9168 25.8636 17.6798 25.876C18.3845 25.8871 18.7119 26.3975 18.4332 27.0533C18.1314 27.761 17.7882 28.4514 17.5034 29.1664C17.4109 29.3982 17.3805 29.7014 17.4389 29.9431C17.8965 31.8145 18.376 33.6798 18.8628 35.5438C19.1707 36.7249 19.2815 37.9146 19.0977 39.1264C19.0855 39.2053 19.0843 39.2867 19.0843 39.3669C19.0843 39.3915 19.1087 39.4149 19.1391 39.4716C19.9715 38.8269 20.3671 37.9405 20.5959 36.9542C21.3285 33.7944 22.0612 30.6347 22.7926 27.4749C23.0506 26.3592 23.647 25.8661 24.7788 25.8772C26.2235 25.8908 27.6717 25.8673 29.1103 25.9684C31.0113 26.1016 32.7723 27.9755 32.9038 29.8962C32.9391 30.4091 32.9585 30.9244 32.9585 31.4385C32.9622 36.8617 32.9646 42.2862 32.9537 47.7094C32.9525 48.0879 32.9147 48.4947 32.776 48.8387C32.535 49.4317 32.0324 49.7399 31.4007 49.8089C31.2279 49.8274 31.0515 49.82 30.8774 49.82C21.2969 49.82 11.7176 49.82 2.13705 49.82C0.668081 49.82 0.0571275 49.2012 0.0571275 47.7057C0.0559104 42.0729 0.0595616 36.4401 0.0546934 30.8073C0.0522593 28.8187 0.803172 27.2518 2.60926 26.379C3.24577 26.072 4.00398 25.9413 4.71717 25.8957C5.9196 25.8193 7.13056 25.8698 8.33786 25.876C9.3407 25.8809 9.98086 26.3987 10.2097 27.3837C10.9496 30.5743 11.6859 33.7661 12.4222 36.9579C12.651 37.9454 13.0539 38.8244 13.9435 39.5284Z" fill="white"/>
</svg>
