<svg width="33" height="50" viewBox="0 0 33 50" fill="none" xmlns="http://www.w3.org/2000/svg">
<g clip-path="url(#clip0_2177_364)">
<path d="M24.6135 0.369873C26.0618 0.906155 26.4829 1.5238 26.4841 3.11169C26.4841 6.42678 26.4817 9.74187 26.4853 13.0582C26.4877 15.7951 25.6261 18.188 23.8005 20.2296C20.2857 24.1598 13.9498 24.5248 10.0297 21.0124C7.77456 18.9918 6.60133 16.4608 6.55143 13.4194C6.51857 11.3766 6.53074 9.33257 6.58307 7.28976C6.63541 5.26422 8.13967 3.49757 10.3157 3.07101C14.7238 2.20679 19.1307 1.33641 23.5376 0.467267C23.6447 0.446309 23.747 0.40316 23.8516 0.369873C24.1048 0.369873 24.3591 0.369873 24.6135 0.369873Z" fill="#D7E6EC"/>
<path d="M32.9892 48.5514C32.6728 49.4896 31.9839 49.804 31.0456 49.8028C21.3823 49.7941 11.7178 49.7978 2.05452 49.7966C0.658578 49.7966 0.104826 49.2455 0.103609 47.8537C0.099958 42.1567 0.097524 36.4598 0.104826 30.7629C0.10726 28.3848 1.2172 26.7759 3.34336 26.1361C3.91294 25.9647 4.54093 25.9289 5.14215 25.9277C12.7304 25.9142 20.3186 25.9191 27.9081 25.9191C30.6683 25.9191 32.0825 26.8006 32.932 29.4401C32.9442 29.477 32.9636 29.6484 32.9904 29.6805C32.9892 35.9704 32.9892 42.2615 32.9892 48.5514Z" fill="#D7E6EC"/>
</g>
<defs>
<clipPath id="clip0_2177_364">
<rect width="33" height="50" fill="white"/>
</clipPath>
</defs>
</svg>
